<?xml version="1.0" encoding="UTF-8" standalone="no"?>
<svg xmlns="http://www.w3.org/2000/svg" width="1920" height="1080" version="1.1" id="svg6810">

    <!--  Arch  -->
    <path style="fill:#002748;stroke:none"
        d="M 958,70 c 6.202,2.6025 14.347,0.5366 21,1.1697 15.163,1.4431 30.08,2.9601 45,6.2547 54.8,12.1037 106.74,37.2266 148,75.6646 49.75,46.341 84.38,111.082 92.71,178.911 1.96,15.907 0.29,32.973 0.29,49 v 96 428 H 733 v 105 c 226.67938,-0.5672 427.2979,0.1113 628,-4e-4 V 434 c 0,-22.174 1.43,-44.882 -0.09,-67 -1.62,-23.593 -5.21,-46.912 -10.33,-70 -2.58,-11.594 -5.73,-22.287 -11.04,-32.804 -1.9,-3.768 -2.2094,-5.50971 -4.758,-10.6385 -3.9405,-13.15276 -5.9397,-17.44885 -8.0667,-21.72721 -4.8255,-8.0152 -10.1362,-17.84594 -15.066,-26.35153 C 1302.3805,190.72246 1297.2489,181.61298 1286.75,167 1270.7,147.581 1252.48,130.282 1232,115.579 1152.47,58.4929 1051.66,43.6187 958,70 Z"
        id="arch" />

    <!--  Yeshivat  -->
    <path style="fill:#005ea4; stroke:none;"
        d="M1060 272C1064.46 279.389 1067.61 273.817 1074 276.129C1081.46 278.828 1092.4 286.833 1097.21 293.09C1104.02 301.947 1103.7 318.255 1102.91 329C1102.27 337.697 1096.41 343.5 1107 348C1115.98 332.622 1120.06 314.539 1122.16 297C1123.03 289.719 1124.38 281.002 1121.52 274C1118.86 267.503 1112.97 263.517 1108 258.911C1103.38 254.629 1098.8 250.265 1094 246.185C1091.84 244.349 1089.07 241.998 1086 242.737C1082.17 243.658 1079.51 248.146 1077.2 251C1071.51 258.023 1065.93 265.189 1060 272z"
        id="first_yud" />
    <path style="fill:#005ea4; stroke:none;"
        d="M1018 246C1015.85 245.647 1014.22 245.297 1012.3 246.644C1010.07 248.201 1008.47 250.847 1006.88 253C1002.93 258.358 996.13 265.938 996.214 273C996.31 281.062 1006.83 283.658 1007.17 291C1007.4 295.989 1004.37 302.234 1003 307C999.187 320.232 997.245 340.342 985.96 349.471C976.814 356.869 962.041 359.407 951 363C952.646 350.257 955.681 337.598 958.2 325C959.559 318.204 959.887 310.301 962.92 304.004C965.631 298.375 970.103 298.53 974.363 295.066C978.319 291.848 983.302 281.103 983.393 276C983.458 272.328 980.512 269.56 977.985 267.289C972.794 262.626 966.708 258.818 962.652 253.001C961.008 250.643 959.857 245.001 955.982 245.832C951.924 246.702 948.874 252.851 946.745 256C940.095 265.839 936.333 272.821 945.999 281.941C947.905 283.74 949.659 284.909 952 286C947.314 305.457 945.646 326.192 942.728 346C942 350.943 941.495 356.121 940.367 360.984C940.024 362.462 939.554 364.876 937.73 365.218C935.349 365.664 933.885 362.693 933.055 360.992C930.573 355.904 928.856 350.28 926.811 345C921.832 332.147 913.261 317.151 915.3 303C916.845 292.282 928.667 279.769 925.485 269C923.894 263.613 918.764 260.739 915.109 256.911C912.239 253.905 911.274 245.928 907.698 244.327C904.782 243.022 902.28 246.095 900.615 248.02C896.049 253.297 890.294 259.664 887.308 266C885.074 270.74 887.939 274.544 891.094 278C895.686 283.03 904.642 288.768 905.632 296C906.695 303.771 902.125 311.997 902.666 320C903.875 337.9 911.236 356.019 916.656 373C919.314 381.328 921.282 396.262 931.015 399.346C935.354 400.722 939.83 399.052 944 397.859C952.351 395.468 960.738 393.013 969 390.33C977.502 387.569 987.053 385.842 993.985 379.787C1000.99 373.667 1002.47 365.667 1004.2 357L1010.4 326C1011.69 319.544 1012.72 312.479 1016.64 307.001C1019.86 302.493 1024.76 300.533 1028.37 296.61C1031.34 293.372 1033.21 288.824 1035.31 285C1036.92 282.065 1039.77 278.555 1039.35 275C1038.97 271.759 1036.14 269.199 1033.98 267.004C1028.06 260.958 1017.51 255.486 1018 246z"
        id="shin" />
    <path style="fill:#005ea4; stroke:none;"
        d="M808 278C810.219 277.214 812.63 275.805 815.002 275.628C820.338 275.23 825.966 280.696 830 283.579C834.651 286.902 839.9 290.056 843.005 295.004C846.78 301.018 847 308.147 847 315C847.001 325.283 846.939 333.396 843 343C845.929 345.073 848.588 346.871 852 348C858.875 331.487 863.873 315.791 866.421 298C867.504 290.432 869.12 281.255 866.005 274C862.809 266.554 854.842 261.107 849 255.83C844.666 251.916 838.241 243.228 832.004 242.662C827.343 242.239 824.097 247.928 821.576 251C815.557 258.331 802.709 268.172 808 278z"
        id="second_yud" />
    <path style="fill:#005ea4; stroke:none;"
        d="M672 290C677.504 290.759 682.594 288.035 688 287.084C698.181 285.293 708.695 286 719 286C723.961 286 729.424 285.374 733.996 287.688C740.019 290.737 742.825 296.811 744.572 303C748.008 315.177 748.728 328.497 750.579 341C751.204 345.226 754.663 355.856 751.382 359.262C749.808 360.895 747.09 361.162 745 361.65C739.68 362.891 734.34 364.057 729 365.21C709.969 369.318 691.069 374.066 672 378C671.198 388.078 668.294 397.977 667 408C676.754 407.58 686.496 404.512 696 402.424C713.983 398.474 731.991 394.619 750 390.789C756.677 389.37 763.308 387.749 770 386.4C772.855 385.824 776.996 385.6 779.062 383.272C781.085 380.992 781.22 376.858 781.801 374C783.158 367.324 784.702 360.691 786 354C776.553 353.561 770.638 346.962 768.503 338C766.987 331.635 767.442 325.424 766.83 319C765.628 306.369 764.961 293.659 764.089 281C763.623 274.233 764.725 263.448 758.775 258.703C754.396 255.209 746.368 255.068 741 255.004C731.669 254.893 722.331 255 713 255C708.473 255 703.019 255.811 699.015 253.258C694.028 250.077 692.259 244.441 691 239C688.794 239.008 686.258 238.746 684.168 239.603C678.503 241.928 669.385 252.647 669.654 259C669.94 265.784 675.435 271.405 675.818 278C676.057 282.123 672.777 285.97 672 290z"
        id="bet" />
    <path style="fill:#005ea4; stroke:none;"
        d="M552 286C546.861 295.231 538.918 303.927 538.213 315C537.447 327.036 540.452 339.928 541.039 352C541.224 355.815 542.712 360.115 541.681 363.895C539.735 371.034 529.062 369.924 524.728 374.56C522.692 376.737 522.392 380.218 521.79 383C520.362 389.602 518.295 396.232 518 403C525.163 402.693 532.16 401.216 539 399.115C545.829 397.017 552.544 394.271 559 391.219C561.551 390.013 565.291 388.77 566.972 386.363C568.688 383.905 568 379.824 568 377C568 372.125 568.658 366.637 566.852 362C565.564 358.694 562.888 356.244 561.51 353C559.447 348.146 559.108 342.169 558.247 337C556.571 326.94 553.546 315.166 555.468 305C558.884 286.929 577.263 286 592 286C598.511 286 605.506 285.179 610.985 289.419C619.233 295.803 620.164 306.464 621.753 316C624.866 334.676 628.192 353.313 631.246 372C631.938 376.235 632.921 380.701 632.921 385C632.921 391.212 630.265 396.603 637 400C640.262 394.67 643.93 389.122 645.485 383C649.166 368.507 644.904 351.616 643.155 337C641.482 323.017 640.328 308.951 638.424 295C636.949 284.201 638.094 267.09 628.895 259.419C622.956 254.466 613.26 255 606 255C590.337 255 574.661 255.188 559 254.996C555.481 254.953 552.237 254.555 549 253.085C546.636 252.011 543.86 249.461 541.093 249.906C538.556 250.314 536.995 253.091 535.671 255.005C532.289 259.89 528.983 264.88 525.966 270C524.483 272.517 522.919 275.078 524.658 277.895C529.722 286.1 543.699 286 552 286z"
        id="first_taf" />

    <!--  HaHesder  -->
    <path style="fill:#005ea4; stroke:none;"
        d="M1004 461C1014.09 457.716 1024.37 454.199 1035 453.17C1053.01 451.427 1071.91 453 1090 453C1092.21 480.983 1097.73 508.961 1098.96 537C1099.22 542.982 1098.99 549.013 1099 555C1099 557.353 1098.6 560.444 1100.03 562.49C1101.52 564.619 1104.69 565.238 1107 566C1111.5 552.202 1119.68 537.842 1119.66 523C1119.64 509.542 1114.37 494.966 1111.13 482C1109.81 476.744 1106.46 469.362 1108.32 464.001C1110.75 456.997 1119.68 451.988 1126 449C1124.54 441.919 1122.38 435.01 1120.63 428C1120.05 425.682 1119.71 421.5 1117.44 420.132C1115.27 418.832 1112.16 420.526 1110 421.076C1105.72 422.167 1101.38 422 1097 422C1076.44 422 1055.52 423.142 1035 421.957C1030.55 421.7 1026.73 420.025 1024.56 415.957C1022.9 412.854 1022.54 407.296 1017.95 407.296C1014.28 407.296 1011.38 410.621 1009.01 413.005C1006.08 415.956 1001.76 419.785 1000.76 424C998.924 431.756 1005.75 441.167 1006.19 449C1006.43 453.433 1003.24 456.373 1004 461         z M1017 564C1026.74 568.789 1036.77 557.938 1040.39 549C1042.68 543.341 1041 536.936 1041 531C1040.99 516.715 1040.33 502.224 1039.17 488C1038.78 483.223 1043.56 476.358 1041.76 472.228C1039.21 466.377 1033.43 471.371 1030.93 474.019C1023.93 481.411 1021.05 488.852 1021 499L1021 524C1021 537.391 1020.45 551.101 1017 564z"
        id="first_heh" />
    <path style="fill:#005ea4; stroke:none;"
        d="M873 461C883.145 457.699 893.308 454.204 904 453.17C922.007 451.427 940.905 453 959 453C959.027 462.7 960.867 472.362 961.831 482C963.731 501.006 966.021 519.985 967.83 539C968.461 545.63 967.459 552.358 968.059 558.982C968.339 562.081 970.196 564.989 973.78 564.493C977.236 564.015 978.174 558.676 979.192 556C982.509 547.284 986.372 538.297 987.7 529C989.876 513.772 983.433 496.671 979.87 482C978.726 477.286 976.441 471.88 976.514 467C976.604 460.93 982.465 456.468 986.999 453.359C989.177 451.866 992.38 450.476 993.306 447.79C994.234 445.103 992.779 441.614 992.127 439C990.462 432.329 988.393 425.729 987 419C982.914 419.603 979.094 421.319 975 421.816C960.41 423.585 944.7 422 930 422C920.886 422 911.031 423.062 902 421.811C898.185 421.283 895.169 419.375 893.278 415.982C891.207 412.266 890.846 406.053 884.999 407.337C881.44 408.119 879.25 411.501 876.911 414.001C874.397 416.687 870.815 419.375 869.643 423C867.199 430.558 873.997 441.354 874.837 448.985C875.388 453.988 870.859 455.771 873 461z         M912 472C910.253 470.884 908.219 469.186 905.995 469.301C899.495 469.636 892.922 481.564 891.221 487C889.03 493.998 890.162 501.773 889.985 509C889.7 520.663 889.005 532.277 889 544C888.999 547.722 888.952 551.341 888.181 555C887.688 557.342 886.155 560.378 886.812 562.786C888.8 570.068 897.231 563.342 899.996 560.829C907.861 553.683 910 547.279 910 537C910 528.617 909 520.383 909 512C909 502.449 906.762 492.517 908.213 483C908.798 479.162 910.93 475.714 912 472z"
        id="second_heh" />
    <path style="fill:#005ea4; stroke:none;"
        d="M 767 415 C 761.992 423.789 755.176 431.988 749 440 C 755.347 448.597 766.684 452.179 777 453 C 773.141 459.932 768.14444 466.31 765.77344 474 C 763.27644 482.099 764.30716 489.768 764.91016 498 C 765.78316 509.902 767.85163 521.514 771.14062 533 C 773.28363 540.482 776.0383 547.87 779.1543 555 C 780.9453 559.099 782.86406 563.36997 787.03906 565.54297 C 793.05906 568.67797 800.4 564.81688 806 562.42188 C 821.788 555.67188 842.63086 546.12 852.00586 531 C 855.82586 524.839 856.14886 516.991 857.13086 510 C 858.67786 498.998 860.28108 487.964 862.08008 477 C 864.43408 462.659 863.60628 451.538 857.98828 438 C 856.13028 433.521 854.10753 427.79777 849.89453 425.00977 C 841.67753 419.57177 827.349 422 818 422 C 807.655 422 796.196 423.37116 786 421.53516 C 779.278 420.32616 773.47 416.863 767 415 z M 796.83203 453.89258 C 798.26479 453.91343 799.68562 454 801 454 L 825 454 C 828.832 454 833.57453 453.27952 836.89453 455.60352 C 840.00753 457.78352 841.58028 461.618 842.98828 465 C 846.63528 473.754 852.98808 486.315 850.58008 496 C 849.29208 501.18 844.95005 505.11577 840.99805 508.38477 C 833.02205 514.98377 824.281 521.00486 815 525.63086 C 810.679 527.78386 802.95094 531.44064 798.21094 528.80664 C 793.45194 526.16364 791.44986 518.613 789.25586 514 C 783.00586 500.855 778.2278 485.685 780.5918 471 C 781.5758 464.889 784.07691 458.03134 790.00391 455.02734 C 792.02266 454.00359 794.44409 453.85783 796.83203 453.89258 z "
        id="samech" />
    <path style="fill:#005ea4; stroke:none;"
        d="M706 453C708.877 489.453 715.731 526.432 715 563C717.784 563.058 720.291 563.352 723 564C726.21 552.239 733.403 540.285 733.961 528C734.888 507.574 725.755 487.279 726.893 467C727.226 461.074 731.168 456.522 736.004 453.468C738.244 452.052 741.534 451.022 742.933 448.61C744.407 446.066 743.018 442.599 742.373 440C740.635 432.989 738.959 425.954 737 419C721.33 422.592 706.063 422 690 422C681.993 422 672.883 423.211 665 421.772C661.106 421.061 658.335 418.437 656.557 414.996C654.831 411.656 653.952 406.538 648.985 407.377C645.7 407.931 643.277 410.811 641 412.99C638.319 415.556 633.837 418.339 632.694 422.039C630.561 428.943 636.676 440.027 637.815 447C638.372 450.413 633.769 457.644 636.761 459.929C638.557 461.301 641.229 459.966 643.001 459.265C647.302 457.562 651.519 455.492 656 454.289C671.309 450.18 690.217 453 706 453z"
        id="dalet" />
    <path style="fill:#005ea4; stroke:none;"
        d="M521 458C527.366 459.552 533.706 455.059 540 453.808C551.796 451.463 565.004 453 577 453C582.906 453 589.044 452.505 593.957 456.419C601.36 462.317 602.141 472.326 603.282 481C605.797 500.132 609.821 519.674 609.821 539C609.821 543.515 609.011 548.646 607.841 553C607.122 555.674 605.152 559.002 605.809 561.826C606.317 564.011 608.472 565.552 610 567C619.205 559.392 622.764 546.42 624.05 535C626.702 511.459 622.706 486.58 621.089 463C620.228 450.431 621.721 433.817 609.996 425.653C604.94 422.132 597.938 422.01 592 422L564 422C551.241 422 543.309 420.933 540 407C531.537 407.03 528.58 411.533 523.654 418C521.47 420.867 518.539 424.157 518.753 428C519.122 434.62 525.295 440.385 525.217 447C525.172 450.785 522.129 454.432 521 458z"
        id="reish" />

    <!--  Tsfat  -->
    <path style="fill:#005ea4; stroke:none;"
        d="M961 575C954.814 583.637 948.701 592.322 942.576 601C939.75 605.004 935.657 609.703 936.897 614.996C938.408 621.44 945.655 623.062 951 625.2C963.028 630.01 980.01 633.827 989.697 642.789C992.693 645.56 993.244 650.174 993.916 654C995.263 661.673 995.179 668.911 998.89 676C1005.15 687.967 1013.2 698.784 1020.67 710C1023.42 714.134 1029.01 720.659 1028.47 725.985C1027.76 733.029 1014.4 734.842 1009 736.265C988.228 741.742 966.31 746.293 945 749C944.991 762.722 942.002 776.274 942 790C969.627 788.814 997.324 780.542 1024 773.873C1035.26 771.058 1050.26 769.261 1058.89 760.815C1065.16 754.677 1066.61 743.296 1068.2 735C1070.28 724.106 1066.79 716.284 1059.7 708C1054.98 702.481 1046.26 697.826 1051.02 690C1058.25 678.136 1065.53 666.448 1071.75 654C1075.61 646.295 1078.91 635.625 1084.79 629.268C1090.54 623.05 1099.29 630.839 1106 628.983C1110.8 627.652 1113.3 623.008 1115.58 618.999C1120.6 610.154 1125.99 601.323 1126 591C1117.17 588.589 1108.57 584.807 1100 581.576C1095.22 579.773 1090.23 577.309 1085 577.898C1074.52 579.078 1068.86 589.11 1062 596C1058.98 599.03 1054.72 602.169 1052.71 606C1050.69 609.858 1054.14 613.474 1055.44 617C1057.06 621.401 1056.87 625.464 1056.08 630C1052.77 648.877 1043.09 666 1037 684C1031.65 678.14 1027.19 671.45 1022.58 665C1018.38 659.13 1013.97 653.405 1013.17 646C1011.78 633.02 1019.65 618.466 1014.03 606.001C1008.59 593.935 989.275 593.886 979 587.532C974.512 584.756 972.541 579.814 968.505 577.024C966.503 575.64 963.326 575.562 961 575z"
        id="tsadi" />
    <path style="fill:#005ea4; stroke:none;"
        d="M756 722C761.802 720.97 767.094 718.144 773 717.3C783.733 715.766 794.234 717 805 717C809.32 717 813.702 716.786 818 717.286C820.299 717.552 823.231 718.482 825.298 716.968C827.937 715.036 828.712 709.948 829.576 707C831.99 698.755 835.744 690.503 837 682C829.586 682 822.369 681.365 815 681.039C810.737 680.851 805.907 681.459 802.105 679.062C798.132 676.557 796.344 671.274 795.039 667C791.367 654.97 792.09 639.274 804.001 632.005C817.535 623.746 832.299 633.799 844 640.424C851.998 644.953 860.035 649.412 868 654C872.772 656.749 878.041 659.473 881.348 664.039C885.375 669.599 885.43 677.447 886.282 684C888.011 697.312 889.317 710.68 891 724C882.385 725.97 874.372 731.325 866 734.308C847.843 740.776 829.01 745.709 810 748.919C800.365 750.546 790.709 751.96 781 753.05C777.699 753.421 771.272 752.981 768.589 755.028C766.046 756.968 765.999 762.124 765.349 765C763.301 774.068 760.405 783.708 760 793C785.939 792.785 812.776 785.663 838 780.21C852.626 777.048 867.053 772.592 881 767.189C886.213 765.17 893.32 763.404 897.363 759.363C901.467 755.26 903.683 748.14 906.247 743C909.167 737.145 913.224 730.411 914.61 724C916.033 717.417 915 709.715 915 703C915 688.953 915.092 674.939 913.282 661C911.849 649.969 910.584 637.613 904.441 628.004C898.75 619.103 887.604 614.847 879 609.308C865.516 600.627 852.198 591.277 838 583.781C833.399 581.351 826.451 576.4 821 577.796C812.169 580.059 804.726 591.601 798.925 598C796.587 600.58 793.05 603.511 792.086 607C790.542 612.594 799.233 615.195 793.883 620.536C786.511 627.896 777.06 632.851 770.329 641C763.936 648.739 761.485 658.24 760.286 668C758.989 678.566 763.949 688.715 763.096 699C762.639 704.499 757.089 707.239 755.114 712C753.816 715.129 755.353 718.863 756 722z"
        id="feh" />
    <path style="fill:#005ea4; stroke:none;"
        d="M569 634C563.787 645.696 552.315 653.404 548.105 666C545.292 674.415 547.973 684.422 548.831 693C550.401 708.7 550.345 725.648 554 741C546.869 742.95 540.106 746.162 533 748.279C529.877 749.21 525.268 749.481 522.843 751.854C520.409 754.238 519.901 758.859 519 762C516.408 771.034 512.766 780.619 512 790C534.114 790 555.2 783.6 576 776.667C581.037 774.988 593.897 772.706 596.397 767.582C597.576 765.164 597 761.606 597 759C597 751.622 599.009 740.686 595.427 734.015C593.208 729.881 588.545 727.999 586.43 723.907C582.741 716.771 582.287 706.801 580.576 699C575.924 677.791 568.689 650.94 593 639.262C597.127 637.28 601.509 636.099 606 635.261C615.89 633.415 625.98 634 636 634C647.697 634 661.46 631.822 671.999 637.88C684.461 645.044 686.487 659.189 689.211 672L705.789 750C707.105 756.225 708.348 762.611 707.911 769C707.658 772.687 705.323 778.21 707.117 781.674C708.605 784.546 712.181 785.93 715 787C720.812 778.456 728.61 770.252 731.1 760C734.36 746.581 730.4 731.364 728.421 718C725.018 695.011 721.993 671.935 718.246 649C715.748 633.708 716.389 609.159 702.91 598.789C692.169 590.526 676.71 592 664 592C636.668 592 609.332 592.131 582 591.999C575.534 591.968 569.021 590.978 563 588.547C559.618 587.181 554.815 583.186 551.039 583.878C547.708 584.489 545.251 588.6 543.247 591C537.417 597.981 531.492 604.902 525.804 612C523.773 614.535 519.78 618.285 521.748 621.815C523.798 625.495 529.325 627.347 533 628.796C544.525 633.338 556.769 634 569 634z"
        id="second_taf" />
</svg>
